# xmcd
#
# Track frame offsets: 
#        150
#        20489
#        42568
#        54508
#        74678
#        88572
#        102893
#        121881
#        135200
#        151627
#        165134
#        180873
#        192527
#        204556
#        218753
#        230811
#        250861
#
# Disc length: 3649 seconds
#
# Revision: 0
# Processed by: cddbd v1.5.2PL0 Copyright (c) Steve Scherf et al.
# Submitted via: ExactAudioCopy v0.99pb5
#
DISCID=de0e3f11
DTITLE=Amália Rodrigues - Amália
DYEAR=2010
DGENRE=Latin
TTITLE0=1-Gaivota
TTITLE1=2-fado Portugues
TTITLE2=3-Maria Lisboa
TTITLE3=4-Cansaço
TTITLE4=5-Ai Mouraria
TTITLE5=6-Fallaste corazon
TTITLE6=7-Barco negro(mono)
TTITLE7=8-Aie,mourir pour toi
TTITLE8=9-Foi Deus
TTITLE9=10-Uma casa Portuguesa
TTITLE10=11-Nem as paredes confesso
TTITLE11=12-Lisboa antiga
TTITLE12=13-Amalia
TTITLE13=14-Carmencita
TTITLE14=15-Nome de rua
TTITLE15=16-Erros meus
TTITLE16=17-Povo que lavas no rio
EXTD=
EXTT0=1-Gaivota
EXTT1=
EXTT2=
EXTT3=
EXTT4=
EXTT5=
EXTT6=
EXTT7=
EXTT8=
EXTT9=
EXTT10=
EXTT11=
EXTT12=
EXTT13=
EXTT14=
EXTT15=
EXTT16=
PLAYORDER=
